<svg width="13" height="13" viewBox="0 0 13 13" fill="none" xmlns="http://www.w3.org/2000/svg">
<path d="M12.75 5.04378C12.7105 4.92946 12.6387 4.82905 12.5433 4.75472C12.4479 4.68039 12.333 4.63534 12.2125 4.62503L8.65623 4.10628L7.06248 0.87503C7.01131 0.76936 6.9314 0.680243 6.83192 0.617888C6.73243 0.555533 6.6174 0.522461 6.49999 0.522461C6.38257 0.522461 6.26754 0.555533 6.16805 0.617888C6.06857 0.680243 5.98866 0.76936 5.93749 0.87503L4.34374 4.10003L0.787486 4.62503C0.671812 4.64147 0.563063 4.69001 0.47358 4.76513C0.384096 4.84025 0.317461 4.93895 0.281236 5.05003C0.248077 5.15858 0.245101 5.2741 0.272628 5.38421C0.300156 5.49432 0.357147 5.59486 0.437486 5.67503L3.01874 8.17503L2.39374 11.725C2.37142 11.8422 2.38311 11.9633 2.42741 12.0741C2.4717 12.1848 2.54677 12.2806 2.64374 12.35C2.73825 12.4176 2.84972 12.4575 2.96564 12.4652C3.08156 12.4729 3.19734 12.4482 3.29999 12.3938L6.49999 10.725L9.68748 12.4C9.7752 12.4495 9.87427 12.4754 9.97498 12.475C10.1074 12.4755 10.2365 12.4339 10.3437 12.3563C10.4407 12.2868 10.5158 12.1911 10.5601 12.0803C10.6044 11.9696 10.616 11.8485 10.5937 11.7313L9.96873 8.18128L12.55 5.68128C12.6402 5.60483 12.7069 5.50434 12.7423 5.3915C12.7777 5.27865 12.7804 5.15808 12.75 5.04378ZM8.90623 7.54378C8.83294 7.61468 8.7781 7.70243 8.74651 7.79939C8.71491 7.89635 8.70753 7.99956 8.72499 8.10003L9.17498 10.7188L6.82499 9.46878C6.73456 9.42063 6.63368 9.39545 6.53124 9.39545C6.42879 9.39545 6.32791 9.42063 6.23748 9.46878L3.88749 10.7188L4.33749 8.10003C4.35495 7.99956 4.34756 7.89635 4.31596 7.79939C4.28437 7.70243 4.22953 7.61468 4.15624 7.54378L2.28124 5.66878L4.91249 5.28753C5.01373 5.27345 5.10998 5.23474 5.1928 5.17481C5.27561 5.11488 5.34246 5.03555 5.38749 4.94378L6.49999 2.56253L7.67498 4.95003C7.72001 5.0418 7.78686 5.12113 7.86967 5.18106C7.95249 5.24099 8.04874 5.2797 8.14999 5.29378L10.7812 5.67503L8.90623 7.54378Z" fill="#FFA800"/>
</svg>
